<svg width="61" height="49" viewBox="0 0 61 49" fill="none" xmlns="http://www.w3.org/2000/svg">
<path fill-rule="evenodd" clip-rule="evenodd" d="M12.6702 0C9.18813 0 6.61342 3.04746 6.73033 6.34908C6.83963 9.52616 6.69729 13.636 5.66283 16.9885C4.62075 20.3486 2.867 22.4785 0 22.753V25.8411C2.867 26.1131 4.62329 28.243 5.66029 31.6056C6.69729 34.9581 6.83963 39.0679 6.72779 42.2425C6.61342 45.5466 9.18813 48.5941 12.6702 48.5941H48.3349C51.817 48.5941 54.3917 45.5466 54.2748 42.2425C54.1655 39.0679 54.3078 34.9581 55.3423 31.6056C56.3818 28.243 58.133 26.1156 61 25.8411V22.753C58.133 22.4785 56.3818 20.3486 55.3423 16.9885C54.3078 13.6335 54.1655 9.52362 54.2748 6.34908C54.3917 3.04492 51.8144 0 48.3349 0H12.6702ZM41.3529 29.9129C41.3529 34.4624 37.9598 37.2201 32.33 37.2201H22.7454C22.471 37.2201 22.2079 37.1112 22.0139 36.9172C21.8199 36.7232 21.7109 36.46 21.7109 36.1857V12.4059C21.7116 12.132 21.8209 11.8695 22.0148 11.676C22.2087 11.4826 22.4715 11.374 22.7454 11.374H32.2766C36.9711 11.374 40.0541 13.9156 40.0541 17.8222C40.0541 20.5621 37.9801 23.0148 35.3393 23.4469V23.5892C38.9358 23.9832 41.3555 26.474 41.3555 29.9129H41.3529ZM31.2879 14.6502H25.8233V22.3717H30.4263C33.9846 22.3717 35.9468 20.9382 35.9468 18.3762C35.9468 15.9769 34.2591 14.6502 31.2879 14.6502ZM25.8233 25.4344V33.9414H31.4913C35.1945 33.9414 37.1592 32.4545 37.1592 29.6612C37.1592 26.8654 35.1411 25.4344 31.2523 25.4344H25.8233Z" fill="#F8F8F8"/>
</svg>
