<svg width="48" height="55" viewBox="0 0 48 55" fill="none" xmlns="http://www.w3.org/2000/svg">
<path d="M47.4054 13.5084C47.0558 12.8718 46.5427 12.34 45.9189 11.9679L26.0811 0.508404C25.4382 0.17438 24.7244 0 24 0C23.2756 0 22.5618 0.17438 21.9189 0.508404L2.08108 11.9679C1.47326 12.3583 0.967369 12.8881 0.605422 13.5133C0.243474 14.1384 0.0359194 14.841 0 15.5625V38.4814C0.0195958 39.2056 0.224294 39.9127 0.594595 40.5354C0.944179 41.1721 1.45733 41.7039 2.08108 42.076L21.9189 53.5354C22.5618 53.8695 23.2756 54.0438 24 54.0438C24.7244 54.0438 25.4382 53.8695 26.0811 53.5354L45.9189 42.076C46.5427 41.7039 47.0558 41.1721 47.4054 40.5354C47.7757 39.9127 47.9804 39.2056 48 38.4814V15.5625C47.9804 14.8382 47.7757 14.1311 47.4054 13.5084V13.5084ZM24 43.0219C21.1998 43.0094 18.4519 42.2622 16.0309 40.855C13.61 39.4477 11.6007 37.4298 10.204 35.0027C8.80724 32.5757 8.07193 29.8246 8.07153 27.0244C8.07114 24.2241 8.80566 21.4728 10.2017 19.0454C11.5978 16.6179 13.6064 14.5994 16.027 13.1915C18.4475 11.7836 21.1952 11.0356 23.9954 11.0223C26.7957 11.0089 29.5503 11.7308 31.9842 13.1156C34.418 14.5004 36.4458 16.4998 37.8649 18.9138L34.8108 20.8327L33.8378 21.3733L31.1351 23.0219C30.2722 21.4218 28.8966 20.158 27.2291 19.4337C25.5616 18.7093 23.6991 18.5664 21.9406 19.0278C20.1821 19.4893 18.6298 20.5283 17.5328 21.9781C16.4358 23.4279 15.8579 25.2042 15.8919 27.0219C15.8842 28.4284 16.2578 29.8108 16.973 31.0219C17.6957 32.2134 18.7133 33.1985 19.9276 33.8821C21.1419 34.5658 22.5119 34.9249 23.9054 34.9249C25.2989 34.9249 26.6689 34.5658 27.8832 33.8821C29.0975 33.1985 30.1151 32.2134 30.8378 31.0219L37.8649 35.13C36.4421 37.5398 34.4142 39.5358 31.9821 40.9201C29.5501 42.3044 26.7984 43.029 24 43.0219ZM40 27.9138H38.2162V29.7246H36.4595V27.9408H34.8108V26.1571H36.5946V24.3192H38.3514V26.103H40.1351L40 27.9138ZM46.6757 27.9138H44.8919V29.7246H43.1081V27.9408H41.3514V26.1571H43.1081V24.3192H44.8919V26.103H46.6757V27.9138Z" fill="#F8F8F8"/>
</svg>
