<svg width="48" height="64" viewBox="0 0 48 64" fill="none" xmlns="http://www.w3.org/2000/svg">
<path d="M12.0054 0H18.88V2.87467H14.88V5.74933H18.88V8.624H12.0054V0Z" fill="#F8F8F8"/>
<path d="M20.2533 0H27.1307V2.50133H23.1307V3H27.1307V8.74933H20.2533V6.12533H24.2533V5.624H20.2533V0Z" fill="#F8F8F8"/>
<path d="M28.5067 0H35.3787V2.50133H31.3787V3H35.3787V8.74933H28.5067V6.12533H32.5067V5.624H28.5067V0Z" fill="#F8F8F8"/>
<path fill-rule="evenodd" clip-rule="evenodd" d="M23.976 64.0001L5.45867 58.8587L0 12.5787H48L42.544 58.8534L23.976 64.0001ZM10.792 33.5281L11.3013 39.2027H30.9733L30.3147 46.5627L23.984 48.2747H23.9787L17.6587 46.5681L17.2533 42.0427H11.5547L12.3493 50.9547L23.976 54.1814L35.6213 50.9547L37.04 35.0507L37.1787 33.5281L38.2027 22.0374H9.77067L10.288 27.7147H31.984L31.4667 33.5281H10.792V33.5281Z" fill="#F8F8F8"/>
</svg>
