<svg width="48" height="64" viewBox="0 0 48 64" fill="none" xmlns="http://www.w3.org/2000/svg">
<path d="M5.54668 0H8.43201V2.85067H11.072V0H13.9573V8.62933H11.072V5.74133H8.43201V8.62933H5.54934V0H5.54668Z" fill="#F8F8F8"/>
<path d="M17.7493 2.86133H15.2106V0H23.176V2.86133H20.6346V8.62933H17.7493V2.86133Z" fill="#F8F8F8"/>
<path d="M24.44 0H27.448L29.2986 3.032L31.1466 0H34.1546V8.62933H31.2826V4.352L29.2986 7.42133H29.248L27.2613 4.35467V8.62933H24.44V0V0Z" fill="#F8F8F8"/>
<path d="M35.5894 0H38.4774V5.77867H42.5307V8.632H35.5894V0V0Z" fill="#F8F8F8"/>
<path fill-rule="evenodd" clip-rule="evenodd" d="M5.456 58.8589L0 12.5789H48L42.5413 58.8535L23.9733 64.0002L5.456 58.8589ZM16.488 33.5255L15.9707 27.7122H37.6907L38.1973 22.0375H9.77067L11.3013 39.2029H30.9733L30.3147 46.5629L23.984 48.2749H23.9787L17.6587 46.5682L17.2533 42.0429H11.552L12.3467 50.9549L23.9733 54.1815L35.6187 50.9549L37.0373 35.0509L37.176 33.5282H16.488V33.5255Z" fill="#F8F8F8"/>
</svg>
