<svg width="46" height="45" viewBox="0 0 46 45" fill="none" xmlns="http://www.w3.org/2000/svg">
<path d="M22.744 14.9968C18.6125 14.9968 15.2409 18.3685 15.2409 22.5C15.2409 26.6315 18.6125 30.0032 22.744 30.0032C26.8754 30.0032 30.247 26.6315 30.247 22.5C30.247 18.3685 26.8754 14.9968 22.744 14.9968ZM45.2475 22.5C45.2475 19.3929 45.2756 16.3139 45.1011 13.2125C44.9267 9.61004 44.1049 6.41288 41.4706 3.7786C38.8308 1.13869 35.6393 0.322516 32.0369 0.148023C28.9299 -0.0264698 25.851 0.00167425 22.7496 0.00167425C19.6425 0.00167425 16.5636 -0.0264698 13.4622 0.148023C9.85986 0.322516 6.66276 1.14432 4.02853 3.7786C1.38867 6.41851 0.57251 9.61004 0.39802 13.2125C0.223531 16.3196 0.251674 19.3985 0.251674 22.5C0.251674 25.6015 0.223531 28.6861 0.39802 31.7875C0.57251 35.39 1.3943 38.5871 4.02853 41.2214C6.66839 43.8613 9.85986 44.6775 13.4622 44.852C16.5693 45.0265 19.6482 44.9983 22.7496 44.9983C25.8566 44.9983 28.9355 45.0265 32.0369 44.852C35.6393 44.6775 38.8364 43.8557 41.4706 41.2214C44.1105 38.5815 44.9267 35.39 45.1011 31.7875C45.2813 28.6861 45.2475 25.6071 45.2475 22.5V22.5ZM22.744 34.0447C16.3554 34.0447 11.1995 28.8887 11.1995 22.5C11.1995 16.1113 16.3554 10.9553 22.744 10.9553C29.1325 10.9553 34.2884 16.1113 34.2884 22.5C34.2884 28.8887 29.1325 34.0447 22.744 34.0447ZM34.7612 13.1787C33.2696 13.1787 32.0651 11.9741 32.0651 10.4825C32.0651 8.99087 33.2696 7.78631 34.7612 7.78631C36.2528 7.78631 37.4574 8.99087 37.4574 10.4825C37.4578 10.8367 37.3884 11.1875 37.253 11.5148C37.1177 11.8421 36.9191 12.1395 36.6687 12.39C36.4182 12.6404 36.1208 12.839 35.7935 12.9744C35.4662 13.1097 35.1154 13.1791 34.7612 13.1787V13.1787Z" fill="white"/>
</svg>
