<svg width="52" height="52" viewBox="0 0 52 52" fill="none" xmlns="http://www.w3.org/2000/svg">
<path fill-rule="evenodd" clip-rule="evenodd" d="M0 0H52V52H0V0ZM39.7518 43.5933C37.3403 43.5933 35.9775 42.3367 34.931 40.625L30.9595 42.9325C32.3938 45.7665 35.3253 47.9288 39.8645 47.9288C44.5055 47.9288 47.9613 45.5195 47.9613 41.119C47.9613 37.0392 45.617 35.2257 41.4657 33.4425L40.2437 32.9203C38.1463 32.0103 37.2385 31.4188 37.2385 29.952C37.2385 28.7668 38.1485 27.859 39.5785 27.859C40.9803 27.859 41.8838 28.4505 42.7223 29.952L46.527 27.5102C44.9172 24.6783 42.6855 23.5972 39.5785 23.5972C35.2148 23.5972 32.422 26.3878 32.422 30.0538C32.422 34.0297 34.762 35.9125 38.2893 37.414L39.5113 37.9383C41.7408 38.9133 43.069 39.507 43.069 41.1818C43.069 42.5815 41.7755 43.5933 39.7518 43.5933V43.5933ZM20.8152 43.5608C19.136 43.5608 18.4362 42.4125 17.6692 41.0475L13.6912 43.4568C14.8438 45.8965 17.1102 47.9202 21.021 47.9202C25.3522 47.9202 28.3183 45.617 28.3183 40.5578V23.8745H23.4325V40.4928C23.4325 42.9347 22.4185 43.5608 20.813 43.5608H20.8152Z" fill="#F8F8F8"/>
</svg>
