<svg width="40" height="40" viewBox="0 0 40 40" fill="none" xmlns="http://www.w3.org/2000/svg">
<path d="M23.0879 16.9118C21.4497 15.2744 19.2283 14.3545 16.9121 14.3545C14.5959 14.3545 12.3745 15.2744 10.7363 16.9118L4.55851 23.0876C2.92032 24.7258 2 26.9477 2 29.2644C2 31.5812 2.92032 33.803 4.55851 35.4412C6.1967 37.0794 8.41856 37.9997 10.7353 37.9997C13.0521 37.9997 15.2739 37.0794 16.9121 35.4412L20 32.3533" stroke="#F8F8F8" stroke-width="4" stroke-linecap="round" stroke-linejoin="round"/>
<path d="M16.9121 23.0879C18.5503 24.7254 20.7717 25.6452 23.0879 25.6452C25.4041 25.6452 27.6255 24.7254 29.2637 23.0879L35.4415 16.9121C37.0797 15.2739 38 13.0521 38 10.7353C38 8.41856 37.0797 6.1967 35.4415 4.55851C33.8033 2.92032 31.5814 2 29.2647 2C26.9479 2 24.7261 2.92032 23.0879 4.55851L20 7.64641" stroke="#F8F8F8" stroke-width="4" stroke-linecap="round" stroke-linejoin="round"/>
</svg>
