<svg width="58" height="45" viewBox="0 0 58 45" fill="none" xmlns="http://www.w3.org/2000/svg">
<path d="M55.0756 0H2.03984C0.911551 0 0 0.914062 0 2.04545V42.9545C0 44.0859 0.911551 45 2.03984 45H55.0756C56.2038 45 57.1154 44.0859 57.1154 42.9545V2.04545C57.1154 0.914062 56.2038 0 55.0756 0ZM49.925 6.96094L29.8135 22.6534C29.3163 23.0433 28.6214 23.0433 28.1242 22.6534L8.00635 6.96094C7.93052 6.90225 7.87489 6.82124 7.84728 6.72926C7.81966 6.63728 7.82144 6.53893 7.85237 6.44802C7.88329 6.3571 7.94181 6.27817 8.01972 6.22228C8.09764 6.16639 8.19104 6.13635 8.28683 6.13636H49.6445C49.7403 6.13635 49.8337 6.16639 49.9116 6.22228C49.9895 6.27817 50.048 6.3571 50.079 6.44802C50.1099 6.53893 50.1117 6.63728 50.084 6.72926C50.0564 6.82124 50.0008 6.90225 49.925 6.96094V6.96094Z" fill="white"/>
</svg>
