<svg width="53" height="53" viewBox="0 0 53 53" fill="none" xmlns="http://www.w3.org/2000/svg">
<path d="M26.3089 0C12.8519 0 13.6911 5.86508 13.6911 5.86508L13.7065 11.9421H26.5452V13.7661H8.61212C8.61212 13.7661 0 12.7835 0 26.4304C0 40.0773 7.51463 39.5915 7.51463 39.5915H11.9973V33.2605C11.9973 33.2605 11.7567 25.7083 19.3949 25.7083H32.1276C32.1276 25.7083 39.2823 25.8231 39.2823 18.7568V7.07077C39.2823 7.07077 40.3666 0 26.3067 0H26.3089ZM19.2293 4.08524C20.5057 4.08524 21.5391 5.12311 21.5391 6.4083C21.5391 7.69129 20.5057 8.72916 19.2293 8.72916C17.9508 8.72916 16.9195 7.69129 16.9195 6.4083C16.9195 5.12311 17.9508 4.08524 19.2293 4.08524Z" fill="#F8F8F8"/>
<path d="M26.6911 52.9979C40.1437 52.9979 39.3045 47.1328 39.3045 47.1328L39.2891 41.0558H26.4504V39.2318H44.3879C44.3879 39.2318 53 40.2144 53 26.5675C53 12.9206 45.4832 13.4064 45.4832 13.4064H41.0005V19.7375C41.0005 19.7375 41.2412 27.2896 33.6029 27.2896H20.8724C20.8724 27.2896 13.7177 27.1748 13.7177 34.2412V45.9271C13.7177 45.9271 12.6313 52.9979 26.6911 52.9979ZM33.7707 48.9127C32.4921 48.9127 31.4609 47.8748 31.4609 46.5896C31.4609 45.3066 32.4921 44.2688 33.7707 44.2688C35.0471 44.2688 36.0805 45.3066 36.0805 46.5896C36.0805 47.8748 35.0471 48.9127 33.7707 48.9127Z" fill="#F8F8F8"/>
</svg>
