<svg width="56" height="50" viewBox="0 0 56 50" fill="none" xmlns="http://www.w3.org/2000/svg">
<path d="M56 24.941C56 21.231 51.3543 17.7147 44.2307 15.5353C45.8757 8.27633 45.1453 2.499 41.9253 0.648667C41.1451 0.211681 40.262 -0.0082784 39.368 0.0116667V2.555C39.893 2.555 40.3153 2.66 40.67 2.85367C42.2217 3.745 42.896 7.133 42.371 11.494C42.245 12.5673 42.0397 13.6967 41.7877 14.8493C39.4021 14.2745 36.981 13.859 34.5403 13.6057C33.0863 11.5997 31.5 9.69299 29.792 7.89833C33.5137 4.44033 37.0067 2.54567 39.382 2.54567V0C36.2413 0 32.1323 2.23767 27.9767 6.118C23.8233 2.26333 19.712 0.0466666 16.5737 0.0466666V2.59C18.9373 2.59 22.442 4.47533 26.1637 7.91C24.5653 9.59 22.967 11.494 21.448 13.6057C19.0023 13.8562 16.5768 14.2756 14.189 14.861C13.9253 13.72 13.7317 12.614 13.594 11.5523C13.0573 7.189 13.72 3.801 15.2623 2.90033C15.603 2.695 16.0487 2.60167 16.5737 2.60167V0.0583333C15.617 0.0583333 14.7467 0.263667 13.9953 0.695333C10.787 2.54567 10.0683 8.309 11.7227 15.547C4.62233 17.7403 0 21.2427 0 24.941C0 28.651 4.64567 32.1673 11.7693 34.3443C10.1243 41.6057 10.8547 47.383 14.0747 49.231C14.8167 49.665 15.6847 49.8703 16.6413 49.8703C19.782 49.8703 23.891 47.6327 28.0467 43.7523C32.2 47.6093 36.309 49.8237 39.4497 49.8237C40.3506 49.8427 41.2404 49.6221 42.028 49.1843C45.2363 47.3363 45.955 41.573 44.3007 34.335C51.3777 32.1557 56 28.6393 56 24.941ZM41.1367 17.3273C40.6933 18.853 40.1794 20.3573 39.5967 21.8353C38.6427 19.9798 37.5953 18.1738 36.4583 16.4243C38.08 16.6647 39.6433 16.961 41.139 17.3273H41.1367ZM35.91 29.484C35.021 31.024 34.1063 32.487 33.159 33.845C29.7343 34.1468 26.2898 34.1508 22.8643 33.8567C20.8995 31.0501 19.1812 28.0788 17.7287 24.976C19.179 21.8659 20.89 18.8842 22.8433 16.0627C26.2672 15.7602 29.7109 15.7555 33.1357 16.0487C34.083 17.4067 35.0093 18.858 35.8983 20.3887C36.7663 21.882 37.555 23.3987 38.2737 24.9293C37.547 26.4786 36.7585 27.998 35.91 29.484V29.484ZM39.5967 28C40.2127 29.5283 40.74 31.059 41.1717 32.543C39.6783 32.9093 38.101 33.2173 36.47 33.4553C37.6022 31.69 38.6457 29.8693 39.5967 28V28ZM28.0233 40.18C26.9617 39.0833 25.9 37.863 24.85 36.526C25.8767 36.5727 26.9267 36.6077 27.9883 36.6077C29.0617 36.6077 30.1233 36.5843 31.1617 36.526C30.135 37.863 29.0733 39.0833 28.0233 40.18ZM19.53 33.4553C17.9567 33.2274 16.3948 32.9268 14.8493 32.5547C15.2717 31.0823 15.7967 29.5633 16.3893 28.0467C16.8583 28.9567 17.3507 29.8713 17.8873 30.786C18.424 31.6983 18.97 32.5897 19.53 33.4553ZM27.965 9.702C29.0267 10.7987 30.0883 12.019 31.1383 13.356C30.1117 13.3093 29.0617 13.2743 28 13.2743C26.9267 13.2743 25.865 13.2977 24.8267 13.356C25.8533 12.019 26.915 10.7987 27.965 9.702ZM19.5183 16.4267C18.3864 18.1882 17.3428 20.005 16.3917 21.8703C15.7925 20.3827 15.2669 18.8666 14.8167 17.3273C16.31 16.9727 17.8873 16.6647 19.5183 16.4267ZM9.18867 30.716C5.14733 28.994 2.534 26.733 2.534 24.941C2.534 23.149 5.14733 20.8763 9.18867 19.166C10.1687 18.7437 11.242 18.3657 12.3503 18.0133C13.0013 20.2487 13.8577 22.5773 14.917 24.9643C13.9169 27.2094 13.071 29.5201 12.3853 31.8803C11.3014 31.5447 10.2345 31.1561 9.18867 30.716V30.716ZM15.33 47.026C13.7783 46.1393 13.104 42.7467 13.629 38.388C13.755 37.3147 13.9603 36.183 14.2123 35.0303C16.4477 35.5787 18.8907 36.001 21.4597 36.2763C22.9137 38.2823 24.5 40.1889 26.208 41.9837C22.4863 45.4417 18.9933 47.3363 16.618 47.3363C16.1699 47.3412 15.7274 47.2354 15.33 47.0283V47.026ZM42.406 38.3297C42.9427 42.6907 42.28 46.081 40.7377 46.9817C40.397 47.187 39.9513 47.278 39.4263 47.278C37.0627 47.278 33.558 45.395 29.8363 41.958C31.4347 40.2827 33.033 38.3763 34.552 36.2647C36.9977 36.0141 39.4232 35.5947 41.811 35.0093C42.0747 36.162 42.2777 37.268 42.406 38.3297V38.3297ZM46.7997 30.716C45.8197 31.1383 44.7463 31.5163 43.638 31.8687C42.9403 29.4964 42.0828 27.1741 41.0713 24.9177C42.1213 22.5447 42.9637 20.2277 43.603 18.0017C44.7347 18.354 45.8057 18.7437 46.8113 19.166C50.8527 20.888 53.466 23.149 53.466 24.941C53.4543 26.733 50.841 29.0057 46.7997 30.716V30.716Z" fill="#F8F8F8"/>
<path d="M27.9882 30.1581C29.3719 30.1581 30.699 29.6084 31.6774 28.6299C32.6559 27.6515 33.2055 26.3244 33.2055 24.9407C33.2055 23.557 32.6559 22.23 31.6774 21.2515C30.699 20.2731 29.3719 19.7234 27.9882 19.7234C26.6045 19.7234 25.2774 20.2731 24.299 21.2515C23.3206 22.23 22.7709 23.557 22.7709 24.9407C22.7709 26.3244 23.3206 27.6515 24.299 28.6299C25.2774 29.6084 26.6045 30.1581 27.9882 30.1581V30.1581Z" fill="#F8F8F8"/>
</svg>
