<svg width="48" height="39" viewBox="0 0 48 39" fill="none" xmlns="http://www.w3.org/2000/svg">
<path d="M47.25 4.91215C45.5124 5.67887 43.6458 6.19692 41.6835 6.43108C43.7082 5.22462 45.223 3.3258 45.9452 1.08892C44.0429 2.21411 41.961 3.00612 39.7898 3.43052C38.3298 1.87815 36.3959 0.849215 34.2885 0.503461C32.181 0.157708 30.0179 0.51448 28.1349 1.51839C26.2519 2.52229 24.7545 4.11717 23.875 6.0554C22.9956 7.99362 22.7833 10.1668 23.2712 12.2374C19.4167 12.0447 15.6459 11.047 12.2036 9.30919C8.76125 7.57134 5.72436 5.13214 3.28998 2.14989C2.4576 3.57972 1.97898 5.23749 1.97898 7.00301C1.97805 8.59239 2.3711 10.1574 3.12325 11.5593C3.8754 12.9611 4.9634 14.1564 6.29071 15.0391C4.75138 14.9903 3.24601 14.5761 1.89991 13.831V13.9553C1.89975 16.1845 2.67409 18.345 4.09152 20.0704C5.50896 21.7957 7.4822 22.9796 9.67641 23.4212C8.24843 23.806 6.7513 23.8627 5.29809 23.5869C5.91717 25.505 7.12308 27.1823 8.74699 28.384C10.3709 29.5856 12.3315 30.2515 14.3544 30.2885C10.9205 32.9728 6.67961 34.4289 2.31401 34.4225C1.54069 34.4227 0.768029 34.3778 0 34.2878C4.43133 37.1251 9.58972 38.6308 14.858 38.625C32.6917 38.625 42.4409 23.9164 42.4409 11.1599C42.4409 10.7454 42.4305 10.3268 42.4118 9.9124C44.3081 8.54676 45.9451 6.85567 47.2458 4.91837L47.25 4.91215V4.91215Z" fill="white"/>
</svg>
